<svg width="38" height="27" viewBox="0 0 38 27" fill="none" xmlns="http://www.w3.org/2000/svg">
<path fill-rule="evenodd" clip-rule="evenodd" d="M25.6765 23.6315C26.6191 24.7614 27.7502 26.0746 27.7502 26.0746C34.3287 25.872 37.0436 21.9143 37.311 21.5245C37.3259 21.5029 37.3332 21.4923 37.3332 21.4939C37.3332 11.7522 32.8087 3.8429 32.8087 3.8429C28.3157 0.57533 24.0113 0.666945 24.0113 0.666945L23.5714 1.15555C28.9127 2.71299 31.3949 5.00334 31.3949 5.00334C28.1272 3.29321 24.9224 2.43815 21.9376 2.10223C19.6754 1.85793 17.5074 1.919 15.5908 2.16331C15.4262 2.16331 15.2856 2.18658 15.1271 2.21281C15.1041 2.21662 15.0806 2.2205 15.0567 2.22438C13.957 2.34654 11.2863 2.71299 7.92443 4.14828C6.7619 4.63688 6.07068 5.00334 6.07068 5.00334C6.07068 5.00334 8.64708 2.59084 14.3026 1.0334L13.9884 0.666945C13.9884 0.666945 9.71535 0.57533 5.19093 3.8429C5.19093 3.8429 0.666504 11.7522 0.666504 21.4939C0.666504 21.4939 3.30575 25.8913 10.2495 26.1051C10.2495 26.1051 11.412 24.7614 12.3546 23.601C8.36431 22.4405 6.85616 20.028 6.85616 20.028C6.85616 20.028 7.17036 20.2418 7.73591 20.5472C7.75533 20.5472 7.77475 20.5588 7.80158 20.575C7.81817 20.5849 7.83759 20.5966 7.86159 20.6083C7.90872 20.6388 7.95585 20.6617 8.00298 20.6846C8.05011 20.7075 8.09724 20.7304 8.14437 20.761C8.92986 21.1885 9.71535 21.5244 10.438 21.7992C11.7262 22.3184 13.2658 22.7765 15.0567 23.1124C17.4131 23.5399 20.1781 23.6926 23.1944 23.1429C24.6711 22.8681 26.1792 22.4711 27.7502 21.8298C28.8499 21.4328 30.0752 20.8526 31.3634 20.028C31.3634 20.028 29.7925 22.5016 25.6765 23.6315ZM21.4039 15.2946C21.4039 13.4318 22.8177 11.9354 24.6087 11.9354C26.3681 11.9354 27.8134 13.4318 27.8134 15.2946C27.8134 17.1575 26.3996 18.6538 24.6087 18.6538C22.8492 18.6538 21.4039 17.1575 21.4039 15.2946ZM9.93571 15.2946C9.93571 13.4318 11.3496 11.9354 13.1405 11.9354C14.9314 11.9354 16.3767 13.4318 16.3453 15.2946C16.3453 17.1575 14.9314 18.6538 13.1405 18.6538C11.381 18.6538 9.93571 17.1575 9.93571 15.2946Z" fill="#F7F6F6"/>
</svg>
