<svg width="34" height="28" viewBox="0 0 34 28" fill="none" xmlns="http://www.w3.org/2000/svg">
<path d="M33.3496 4.37875C33.4462 4.24413 33.3035 4.07032 33.1491 4.1302C32.0512 4.55575 30.9038 4.84286 29.7334 4.98435C31.0366 4.20581 32.0422 3.02068 32.5998 1.61758C32.6566 1.47464 32.5005 1.347 32.3659 1.42136C31.1547 2.09025 29.8484 2.57191 28.4915 2.84931C28.4347 2.86092 28.3762 2.84158 28.3363 2.79951C27.318 1.72505 25.9776 1.00966 24.5164 0.76244C23.0245 0.510032 21.4909 0.759952 20.1564 1.473C18.8218 2.18605 17.7616 3.32191 17.1421 4.70241C16.5531 6.01501 16.3942 7.4782 16.6847 8.88341C16.7072 8.99244 16.6219 9.09538 16.5107 9.08848C13.8707 8.9245 11.2912 8.22228 8.93114 7.02412C6.57712 5.82901 4.49257 4.1664 2.80445 2.13885C2.72953 2.04886 2.58753 2.06051 2.53294 2.1641C2.00766 3.16087 1.73263 4.27186 1.73338 5.40102C1.73125 6.52499 2.00707 7.63205 2.5363 8.62363C3.06553 9.61521 3.83174 10.4605 4.76671 11.0844C3.77517 11.0574 2.80296 10.8122 1.91879 10.3678C1.80485 10.3105 1.66817 10.3921 1.6741 10.5195C1.74304 12.0015 2.28713 13.4894 3.2289 14.631C4.2311 15.8458 5.62214 16.6771 7.16671 16.9844C6.57214 17.1653 5.95484 17.2607 5.33338 17.2677C4.99514 17.2637 4.65757 17.2388 4.3226 17.193C4.19841 17.176 4.09699 17.294 4.14047 17.4115C4.60117 18.6574 5.41504 19.7444 6.48517 20.538C7.62926 21.3863 9.00934 21.8569 10.4334 21.8844C8.02872 23.7765 5.05985 24.8091 2.00005 24.8177C1.68564 24.8187 1.37137 24.8085 1.05785 24.7872C0.881169 24.7751 0.799911 25.0105 0.952203 25.1009C3.93348 26.8701 7.34103 27.8053 10.8167 27.801C13.3829 27.8277 15.9286 27.3427 18.3052 26.3745C20.6819 25.4063 22.8417 23.9742 24.6587 22.1618C26.4757 20.3495 27.9133 18.1933 28.8876 15.8192C29.862 13.4451 30.3534 10.9006 30.3334 8.33435V7.53464C30.3334 7.48202 30.3583 7.43253 30.4003 7.40083C31.5307 6.54726 32.5249 5.5282 33.3496 4.37875Z" fill="#F7F6F6"/>
</svg>
