<svg width="190" height="40" viewBox="0 0 190 40" fill="none" xmlns="http://www.w3.org/2000/svg">
<path d="M30.8297 15.5486C30.7784 15.5676 30.727 15.5878 30.6743 15.6054C30.727 15.5878 30.7784 15.5676 30.8297 15.5486Z" fill="url(#paint0_linear_1170_6106)"/>
<path d="M30.6744 15.6054C30.569 15.6405 30.4622 15.673 30.3555 15.7027C30.4622 15.673 30.569 15.6419 30.6744 15.6054Z" fill="url(#paint1_linear_1170_6106)"/>
<path d="M32.4688 14.6595C31.962 15.0405 31.408 15.3351 30.8296 15.5486C31.4093 15.3365 31.962 15.0405 32.4688 14.6595Z" fill="url(#paint2_linear_1170_6106)"/>
<path d="M32.4971 14.6405C32.4971 14.6392 32.4971 14.6392 32.4971 14.6405C32.4877 14.6459 32.4782 14.6527 32.4688 14.6595C32.4782 14.6527 32.4877 14.6473 32.4971 14.6405Z" fill="url(#paint3_linear_1170_6106)"/>
<path d="M30.3556 15.7027C30.2799 15.7243 30.2056 15.7446 30.1299 15.7622C30.2056 15.7446 30.2799 15.7243 30.3556 15.7027Z" fill="url(#paint4_linear_1170_6106)"/>
<path d="M0.0634766 19.9486C0.0634766 19.9716 0.0634766 19.9946 0.0634766 20.0176C0.0634766 25.7892 2.52023 31.1581 6.75537 34.9189C5.68104 33.8203 5.03645 32.3473 4.96483 30.7878C4.96077 30.6892 4.95807 30.5892 4.95807 30.4905C4.95807 30.3297 4.97023 30.1689 4.98239 30.0095C4.05807 27.9338 3.56212 25.6568 3.56212 23.2973C3.56212 23.2784 3.56212 23.2595 3.56212 23.2405C3.59185 14.2257 10.95 6.83919 19.9648 6.77702C23.85 6.75 27.6337 8.09865 30.6189 10.5757C31.7432 11.5081 32.427 12.8865 32.4946 14.3568C32.4986 14.4392 32.5 14.5216 32.5 14.6027C32.5 14.6149 32.4986 14.6257 32.4986 14.6378C32.7256 14.4649 32.9473 14.2824 33.1527 14.0757C34.25 12.9797 34.9054 11.5216 35.0202 9.98919C35.0189 10.0081 35.0148 10.0257 35.0135 10.0432C35.0175 9.9973 35.0202 9.9527 35.0243 9.90676C35.0324 9.77432 35.0446 9.64189 35.0446 9.50946V9.50811C35.0446 9.40946 35.0419 9.30946 35.0378 9.21081C35.0378 9.20811 35.0378 9.20676 35.0378 9.20405C35.0283 8.99324 35.0067 8.78378 34.9756 8.57568C34.9621 8.48108 34.9392 8.39054 34.9216 8.2973C34.9 8.18513 34.881 8.07297 34.8527 7.96351C34.8216 7.84054 34.7824 7.72027 34.7432 7.59865C34.7202 7.52432 34.6986 7.44865 34.6729 7.37567C34.6229 7.23513 34.5648 7.0973 34.504 6.95946C34.4837 6.91216 34.4635 6.86351 34.4419 6.81622C34.3702 6.66351 34.2919 6.51486 34.2081 6.36892C34.1932 6.34189 34.1783 6.31351 34.1621 6.28649C34.0689 6.12973 33.9689 5.97567 33.8621 5.82702C33.8527 5.81486 33.8446 5.80135 33.8351 5.78919C33.7216 5.63243 33.6 5.48108 33.4716 5.33378C33.4689 5.32973 33.4648 5.32703 33.4621 5.32297C33.3297 5.17297 33.1892 5.02838 33.0419 4.88919C32.9513 4.8054 32.8648 4.71757 32.7702 4.63784C29.1621 1.64324 24.5892 0.0121599 19.8919 0.0459437C8.99321 0.124322 0.0999631 9.05135 0.0634766 19.9486Z" fill="url(#paint5_linear_1170_6106)"/>
<path d="M29.5499 15.8757C29.4701 15.8878 29.3917 15.9013 29.312 15.9094C29.3917 15.9013 29.4701 15.8878 29.5499 15.8757Z" fill="url(#paint6_linear_1170_6106)"/>
<path d="M30.1298 15.7622C30.0352 15.7851 29.9392 15.8068 29.8433 15.8257C29.9392 15.8081 30.0338 15.7851 30.1298 15.7622Z" fill="url(#paint7_linear_1170_6106)"/>
<path d="M29.312 15.9095C29.1323 15.9297 28.9526 15.9446 28.7715 15.95C28.9526 15.9446 29.1323 15.9297 29.312 15.9095Z" fill="url(#paint8_linear_1170_6106)"/>
<path d="M29.843 15.827C29.7457 15.8459 29.6484 15.8608 29.5498 15.8757C29.6471 15.8608 29.7457 15.8459 29.843 15.827Z" fill="url(#paint9_linear_1170_6106)"/>
<path d="M5.57309 27.7568C5.31363 26.7554 5.17443 25.7135 5.17443 24.6527C5.17443 24.6203 5.17443 24.5878 5.17443 24.5541C5.22714 17.8919 10.6893 12.4027 17.3501 12.3176C20.0717 12.2824 22.6623 13.1176 24.8407 14.7324C27.115 16.4176 30.265 16.3351 32.4961 14.6392C32.4961 14.627 32.4974 14.6149 32.4974 14.6027C32.4974 14.5216 32.4961 14.4392 32.492 14.3568C32.4231 12.8865 31.7393 11.5081 30.6163 10.5757C27.6312 8.09864 23.8474 6.75 19.9623 6.77702C10.9474 6.84054 3.5893 14.2257 3.55957 23.2405C3.55957 23.2595 3.55957 23.2784 3.55957 23.2973C3.55957 25.6568 4.05687 27.9338 4.97984 30.0095C5.0393 29.2257 5.24336 28.4635 5.57309 27.7568Z" fill="url(#paint10_linear_1170_6106)"/>
<path d="M35.0367 9.21216C35.0407 9.31081 35.0434 9.41081 35.0434 9.50946C35.0434 9.68919 35.0286 9.86757 35.0123 10.0459C35.0137 10.027 35.0177 10.0095 35.0191 9.99189C35.9434 12.0676 36.4394 14.3446 36.4394 16.7041C36.4394 16.723 36.4394 16.7419 36.4394 16.7608C36.4096 25.7757 29.0515 33.1622 20.0367 33.2243C16.1515 33.2514 12.3677 31.9027 9.38259 29.4257C8.25827 28.4932 7.57449 27.1149 7.50692 25.6446C7.50286 25.5622 7.50151 25.4797 7.50151 25.3987C7.50151 25.3865 7.50286 25.3743 7.50286 25.3622C8.59476 24.5324 9.90692 24.0919 11.2272 24.0527C9.62854 24.0973 8.04476 24.7284 6.84746 25.9257C5.63665 27.1365 4.95557 28.7865 4.95557 30.4932C4.95557 30.5919 4.95827 30.6919 4.96232 30.7905C5.04476 32.5676 5.87178 34.2338 7.22989 35.3608C10.838 38.3554 15.411 39.9865 20.1083 39.9527C31.0042 39.877 39.8988 30.95 39.9353 20.0527C39.9353 20.0297 39.9353 20.0068 39.9353 19.9838C39.9353 14.1162 37.4029 8.66081 33.038 4.89324C34.2326 6.00811 34.9596 7.55946 35.0367 9.21216Z" fill="url(#paint11_linear_1170_6106)"/>
<path d="M34.4273 12.2432C34.6867 13.2446 34.8259 14.2865 34.8259 15.3473C34.8259 15.3797 34.8259 15.4122 34.8259 15.4459C34.7732 22.1081 29.311 27.5973 22.6502 27.6824C19.9286 27.7176 17.3381 26.8824 15.1597 25.2676C12.8854 23.5824 9.73536 23.6649 7.50428 25.3608C7.50428 25.373 7.50293 25.3851 7.50293 25.3973C7.50293 25.4784 7.50428 25.5608 7.50834 25.6432C7.57726 27.1135 8.26104 28.4919 9.38401 29.4243C12.3692 31.9013 16.1529 33.25 20.0381 33.223C29.0529 33.1595 36.4111 25.7743 36.4408 16.7595C36.4408 16.7405 36.4408 16.7216 36.4408 16.7027C36.4408 14.3432 35.9435 12.0662 35.0205 9.99054C34.9611 10.7743 34.757 11.5365 34.4273 12.2432Z" fill="url(#paint12_linear_1170_6106)"/>
<path d="M51.628 27V11.424H57.546C58.7633 11.424 59.856 11.5927 60.824 11.93C61.8067 12.2527 62.6353 12.744 63.31 13.404C63.9993 14.064 64.5273 14.878 64.894 15.846C65.2607 16.814 65.444 17.936 65.444 19.212C65.444 21.7787 64.7693 23.722 63.42 25.042C62.0853 26.3473 60.1567 27 57.634 27H51.628ZM57.678 23.766C58.426 23.766 59.0567 23.6633 59.57 23.458C60.098 23.238 60.5233 22.93 60.846 22.534C61.1833 22.138 61.4253 21.6613 61.572 21.104C61.7187 20.5467 61.792 19.9233 61.792 19.234C61.792 17.738 61.44 16.6087 60.736 15.846C60.0467 15.0833 58.9687 14.702 57.502 14.702H55.214V23.766H57.678ZM72.8202 24.052C73.2162 24.052 73.5389 23.986 73.7882 23.854C74.0522 23.7073 74.2502 23.524 74.3822 23.304C74.5289 23.084 74.6242 22.8273 74.6682 22.534C74.7269 22.2407 74.7562 21.9327 74.7562 21.61V15.406H78.2102V21.808C78.2102 22.7907 78.0709 23.6267 77.7922 24.316C77.5282 25.0053 77.1542 25.5627 76.6702 25.988C76.1862 26.4133 75.6069 26.7213 74.9322 26.912C74.2722 27.088 73.5609 27.176 72.7982 27.176C71.9622 27.176 71.2069 27.0733 70.5322 26.868C69.8575 26.6627 69.2855 26.34 68.8162 25.9C68.3615 25.46 68.0095 24.9027 67.7602 24.228C67.5255 23.5387 67.4082 22.732 67.4082 21.808V15.406H70.8622V21.61C70.8622 22.314 71.0089 22.8933 71.3022 23.348C71.5955 23.8027 72.1015 24.0373 72.8202 24.052ZM87.7511 27L87.7291 25.504C87.4651 25.8707 87.1498 26.1787 86.7831 26.428C86.4311 26.6627 86.0351 26.846 85.5951 26.978C85.1698 27.11 84.6418 27.176 84.0111 27.176C83.4978 27.176 83.0138 27.11 82.5591 26.978C82.1191 26.8313 81.7158 26.604 81.3491 26.296C80.9825 25.9733 80.6891 25.5847 80.4691 25.13C80.2638 24.6753 80.1611 24.14 80.1611 23.524C80.1611 22.864 80.3151 22.2847 80.6231 21.786C80.9311 21.2727 81.3345 20.884 81.8331 20.62C82.3318 20.356 82.8965 20.18 83.5271 20.092C84.1725 19.9893 84.8471 19.938 85.5511 19.938H87.6191C87.6191 19.3953 87.4578 18.9553 87.1351 18.618C86.8271 18.2807 86.3651 18.112 85.7491 18.112C85.3238 18.0973 84.9278 18.1707 84.5611 18.332C84.1945 18.4933 83.9745 18.75 83.9011 19.102H80.3811C80.4691 18.398 80.6745 17.7967 80.9971 17.298C81.3198 16.7847 81.7231 16.374 82.2071 16.066C82.7058 15.7433 83.2485 15.516 83.8351 15.384C84.4365 15.2373 85.0598 15.164 85.7051 15.164C86.7465 15.164 87.6045 15.3107 88.2791 15.604C88.9538 15.8973 89.4891 16.3007 89.8851 16.814C90.2958 17.3127 90.5745 17.9067 90.7211 18.596C90.8825 19.2853 90.9631 20.004 90.9631 20.752V27H87.7511ZM87.6411 22.094H85.6171C84.9865 22.094 84.4951 22.1967 84.1431 22.402C83.8058 22.6073 83.6371 22.908 83.6371 23.304C83.6371 23.6853 83.7691 23.9787 84.0331 24.184C84.3118 24.3893 84.6785 24.492 85.1331 24.492C85.4558 24.492 85.7638 24.448 86.0571 24.36C86.3651 24.2573 86.6365 24.1033 86.8711 23.898C87.1205 23.6927 87.3111 23.4433 87.4431 23.15C87.5751 22.842 87.6411 22.49 87.6411 22.094ZM96.7949 27H93.3409V11.424H96.7949V27ZM116.966 11.424V14.702H109.376V18.134H115.69V21.346H109.376V27H105.79V11.424H116.966ZM120.65 9.972C121.266 9.972 121.772 10.1553 122.168 10.522C122.579 10.8887 122.784 11.3947 122.784 12.04C122.784 12.7147 122.579 13.2353 122.168 13.602C121.772 13.954 121.266 14.13 120.65 14.13C120.063 14.13 119.557 13.954 119.132 13.602C118.721 13.25 118.516 12.7293 118.516 12.04C118.516 11.3947 118.729 10.8887 119.154 10.522C119.579 10.1553 120.078 9.972 120.65 9.972ZM122.388 27H118.934V15.406H122.388V27ZM128.44 16.682C128.954 16.1247 129.511 15.736 130.112 15.516C130.714 15.296 131.293 15.1787 131.85 15.164C132.584 15.164 133.222 15.2887 133.764 15.538C134.322 15.7727 134.791 16.1027 135.172 16.528C135.598 17.0413 135.891 17.6427 136.052 18.332C136.214 19.0213 136.294 19.784 136.294 20.62V27H132.818V20.906C132.818 20.5833 132.789 20.268 132.73 19.96C132.672 19.652 132.562 19.3733 132.4 19.124C132.239 18.8747 132.019 18.684 131.74 18.552C131.462 18.4053 131.117 18.332 130.706 18.332C130.266 18.3467 129.9 18.442 129.606 18.618C129.313 18.794 129.086 19.0213 128.924 19.3C128.763 19.564 128.646 19.8573 128.572 20.18C128.514 20.5027 128.484 20.8253 128.484 21.148V27H125.03V15.406H128.264L128.44 16.682ZM145.802 27L145.78 25.504C145.516 25.8707 145.201 26.1787 144.834 26.428C144.482 26.6627 144.086 26.846 143.646 26.978C143.221 27.11 142.693 27.176 142.062 27.176C141.549 27.176 141.065 27.11 140.61 26.978C140.17 26.8313 139.767 26.604 139.4 26.296C139.033 25.9733 138.74 25.5847 138.52 25.13C138.315 24.6753 138.212 24.14 138.212 23.524C138.212 22.864 138.366 22.2847 138.674 21.786C138.982 21.2727 139.385 20.884 139.884 20.62C140.383 20.356 140.947 20.18 141.578 20.092C142.223 19.9893 142.898 19.938 143.602 19.938H145.67C145.67 19.3953 145.509 18.9553 145.186 18.618C144.878 18.2807 144.416 18.112 143.8 18.112C143.375 18.0973 142.979 18.1707 142.612 18.332C142.245 18.4933 142.025 18.75 141.952 19.102H138.432C138.52 18.398 138.725 17.7967 139.048 17.298C139.371 16.7847 139.774 16.374 140.258 16.066C140.757 15.7433 141.299 15.516 141.886 15.384C142.487 15.2373 143.111 15.164 143.756 15.164C144.797 15.164 145.655 15.3107 146.33 15.604C147.005 15.8973 147.54 16.3007 147.936 16.814C148.347 17.3127 148.625 17.9067 148.772 18.596C148.933 19.2853 149.014 20.004 149.014 20.752V27H145.802ZM145.692 22.094H143.668C143.037 22.094 142.546 22.1967 142.194 22.402C141.857 22.6073 141.688 22.908 141.688 23.304C141.688 23.6853 141.82 23.9787 142.084 24.184C142.363 24.3893 142.729 24.492 143.184 24.492C143.507 24.492 143.815 24.448 144.108 24.36C144.416 24.2573 144.687 24.1033 144.922 23.898C145.171 23.6927 145.362 23.4433 145.494 23.15C145.626 22.842 145.692 22.49 145.692 22.094ZM154.802 16.682C155.315 16.1247 155.872 15.736 156.474 15.516C157.075 15.296 157.654 15.1787 158.212 15.164C158.945 15.164 159.583 15.2887 160.126 15.538C160.683 15.7727 161.152 16.1027 161.534 16.528C161.959 17.0413 162.252 17.6427 162.414 18.332C162.575 19.0213 162.656 19.784 162.656 20.62V27H159.18V20.906C159.18 20.5833 159.15 20.268 159.092 19.96C159.033 19.652 158.923 19.3733 158.762 19.124C158.6 18.8747 158.38 18.684 158.102 18.552C157.823 18.4053 157.478 18.332 157.068 18.332C156.628 18.3467 156.261 18.442 155.968 18.618C155.674 18.794 155.447 19.0213 155.286 19.3C155.124 19.564 155.007 19.8573 154.934 20.18C154.875 20.5027 154.846 20.8253 154.846 21.148V27H151.392V15.406H154.626L154.802 16.682ZM170.337 24.052C170.865 24.052 171.291 23.9273 171.613 23.678C171.936 23.414 172.134 23.0913 172.207 22.71H175.771C175.698 23.4873 175.507 24.1547 175.199 24.712C174.891 25.2693 174.488 25.7313 173.989 26.098C173.505 26.4647 172.948 26.736 172.317 26.912C171.687 27.088 171.034 27.176 170.359 27.176C168.482 27.176 167.037 26.6553 166.025 25.614C165.028 24.5727 164.529 23.0987 164.529 21.192C164.529 20.268 164.669 19.432 164.947 18.684C165.226 17.936 165.615 17.3053 166.113 16.792C166.627 16.264 167.243 15.8607 167.961 15.582C168.695 15.3033 169.523 15.164 170.447 15.164C171.151 15.164 171.811 15.2593 172.427 15.45C173.043 15.6407 173.579 15.9267 174.033 16.308C174.503 16.6747 174.877 17.144 175.155 17.716C175.449 18.2733 175.632 18.926 175.705 19.674H172.207C172.119 19.278 171.914 18.9627 171.591 18.728C171.269 18.4787 170.851 18.354 170.337 18.354C169.897 18.354 169.523 18.442 169.215 18.618C168.907 18.7793 168.665 18.9993 168.489 19.278C168.313 19.542 168.189 19.85 168.115 20.202C168.042 20.5393 168.005 20.884 168.005 21.236C168.005 21.632 168.042 21.9987 168.115 22.336C168.203 22.6587 168.343 22.952 168.533 23.216C168.724 23.4653 168.966 23.6707 169.259 23.832C169.553 23.9787 169.912 24.052 170.337 24.052ZM183.014 24.294C183.469 24.294 183.85 24.2207 184.158 24.074C184.466 23.9127 184.693 23.6927 184.84 23.414H188.36C188.199 24.0887 187.949 24.6607 187.612 25.13C187.275 25.5993 186.864 25.988 186.38 26.296C185.896 26.604 185.361 26.8313 184.774 26.978C184.202 27.11 183.601 27.176 182.97 27.176C181.137 27.176 179.707 26.6553 178.68 25.614C177.668 24.558 177.162 23.0693 177.162 21.148C177.162 20.2973 177.294 19.5053 177.558 18.772C177.837 18.0387 178.218 17.408 178.702 16.88C179.201 16.3373 179.802 15.9193 180.506 15.626C181.225 15.318 182.031 15.164 182.926 15.164C183.821 15.164 184.613 15.3033 185.302 15.582C185.991 15.8607 186.571 16.2567 187.04 16.77C187.509 17.2833 187.861 17.892 188.096 18.596C188.345 19.3 188.47 20.0627 188.47 20.884C188.47 21.1187 188.455 21.346 188.426 21.566C188.411 21.7713 188.382 21.9987 188.338 22.248H180.638C180.697 22.8053 180.909 23.282 181.276 23.678C181.657 24.074 182.237 24.2793 183.014 24.294ZM185.148 19.916C185.148 19.3733 184.95 18.926 184.554 18.574C184.173 18.222 183.645 18.046 182.97 18.046C182.222 18.046 181.665 18.2367 181.298 18.618C180.931 18.9847 180.726 19.4173 180.682 19.916H185.148Z" fill="white"/>
<defs>
<linearGradient id="paint0_linear_1170_6106" x1="30.6815" y1="15.6179" x2="30.8227" y2="15.5364" gradientUnits="userSpaceOnUse">
<stop stop-color="#FF4E17"/>
<stop offset="0.7525" stop-color="#F4BA4D"/>
</linearGradient>
<linearGradient id="paint1_linear_1170_6106" x1="30.3741" y1="15.7356" x2="30.6556" y2="15.573" gradientUnits="userSpaceOnUse">
<stop stop-color="#FF4E17"/>
<stop offset="0.7525" stop-color="#F4BA4D"/>
</linearGradient>
<linearGradient id="paint2_linear_1170_6106" x1="30.8536" y1="15.5901" x2="32.4683" y2="14.6579" gradientUnits="userSpaceOnUse">
<stop stop-color="#FF4E17"/>
<stop offset="0.7525" stop-color="#F4BA4D"/>
</linearGradient>
<linearGradient id="paint3_linear_1170_6106" x1="32.4682" y1="14.6577" x2="32.498" y2="14.6404" gradientUnits="userSpaceOnUse">
<stop stop-color="#FF4E17"/>
<stop offset="0.7525" stop-color="#F4BA4D"/>
</linearGradient>
<linearGradient id="paint4_linear_1170_6106" x1="30.1447" y1="15.7892" x2="30.34" y2="15.6764" gradientUnits="userSpaceOnUse">
<stop stop-color="#FF4E17"/>
<stop offset="0.7525" stop-color="#F4BA4D"/>
</linearGradient>
<linearGradient id="paint5_linear_1170_6106" x1="-0.686036" y1="24.0769" x2="33.1507" y2="4.54134" gradientUnits="userSpaceOnUse">
<stop stop-color="#33B38F"/>
<stop offset="0.7673" stop-color="#9EF8CB"/>
</linearGradient>
<linearGradient id="paint6_linear_1170_6106" x1="29.3345" y1="15.9482" x2="29.5274" y2="15.8369" gradientUnits="userSpaceOnUse">
<stop stop-color="#FF4E17"/>
<stop offset="0.7525" stop-color="#F4BA4D"/>
</linearGradient>
<linearGradient id="paint7_linear_1170_6106" x1="29.8648" y1="15.8645" x2="30.1072" y2="15.7245" gradientUnits="userSpaceOnUse">
<stop stop-color="#FF4E17"/>
<stop offset="0.7525" stop-color="#F4BA4D"/>
</linearGradient>
<linearGradient id="paint8_linear_1170_6106" x1="28.8311" y1="16.0517" x2="29.2535" y2="15.8079" gradientUnits="userSpaceOnUse">
<stop stop-color="#FF4E17"/>
<stop offset="0.7525" stop-color="#F4BA4D"/>
</linearGradient>
<linearGradient id="paint9_linear_1170_6106" x1="29.5757" y1="15.9205" x2="29.8166" y2="15.7814" gradientUnits="userSpaceOnUse">
<stop stop-color="#FF4E17"/>
<stop offset="0.7525" stop-color="#F4BA4D"/>
</linearGradient>
<linearGradient id="paint10_linear_1170_6106" x1="3.5603" y1="18.3929" x2="32.4991" y2="18.3929" gradientUnits="userSpaceOnUse">
<stop stop-color="#33B38F"/>
<stop offset="1" stop-color="#9EF8CB"/>
</linearGradient>
<linearGradient id="paint11_linear_1170_6106" x1="37.157" y1="30.1159" x2="12.42" y2="15.8341" gradientUnits="userSpaceOnUse">
<stop stop-color="#FF4E17"/>
<stop offset="0.7673" stop-color="#F4BA4D"/>
</linearGradient>
<linearGradient id="paint12_linear_1170_6106" x1="33.4258" y1="26.3228" x2="13.5668" y2="14.8573" gradientUnits="userSpaceOnUse">
<stop stop-color="#FF4E17"/>
<stop offset="1" stop-color="#F4BA4D"/>
</linearGradient>
</defs>
</svg>
