<svg width="24" height="24" viewBox="0 0 24 24" fill="none" xmlns="http://www.w3.org/2000/svg">
<path d="M23.6393 14.9029C22.0366 21.3315 15.5254 25.2438 9.09601 23.6407C2.66931 22.038 -1.24303 15.5265 0.360359 9.09837C1.96234 2.66903 8.47351 -1.24361 14.9009 0.359081C21.3298 1.96177 25.2419 8.47404 23.6391 14.903L23.6392 14.9029H23.6393Z" fill="#F7931A"/>
<path d="M17.2912 10.2894C17.5301 8.69242 16.3143 7.834 14.6518 7.26136L15.1911 5.09816L13.8743 4.77005L13.3493 6.87629C13.0031 6.78995 12.6476 6.70859 12.2942 6.62794L12.8231 4.5078L11.5071 4.17969L10.9675 6.34218C10.681 6.27695 10.3996 6.21249 10.1266 6.14457L10.1282 6.13776L8.31227 5.6843L7.96199 7.09073C7.96199 7.09073 8.93894 7.31467 8.91835 7.32846C9.45159 7.46155 9.54801 7.81453 9.532 8.09432L8.91765 10.5587C8.95437 10.568 9.002 10.5815 9.05455 10.6026C9.01062 10.5917 8.96387 10.5798 8.91536 10.5682L8.05425 14.0205C7.98908 14.1825 7.82368 14.4256 7.45087 14.3333C7.46406 14.3524 6.49379 14.0944 6.49379 14.0944L5.84003 15.6017L7.55363 16.0289C7.87242 16.1089 8.18482 16.1925 8.49246 16.2712L7.94756 18.4592L9.26283 18.7873L9.80246 16.6225C10.1618 16.72 10.5105 16.81 10.8519 16.8948L10.314 19.0494L11.6309 19.3775L12.1758 17.1936C14.4212 17.6186 16.1096 17.4472 16.8202 15.4163C17.3929 13.7811 16.7917 12.8379 15.6104 12.2229C16.4708 12.0244 17.1189 11.4585 17.2917 10.2895L17.2913 10.2892L17.2912 10.2894ZM14.2826 14.5082C13.8757 16.1433 11.1225 15.2594 10.2299 15.0378L10.953 12.139C11.8456 12.3619 14.7079 12.8028 14.2827 14.5082H14.2826ZM14.6899 10.2657C14.3187 11.753 12.0272 10.9974 11.2838 10.8121L11.9394 8.18312C12.6828 8.36841 15.0766 8.71424 14.69 10.2657H14.6899Z" fill="white"/>
</svg>
