<svg width="24" height="24" viewBox="0 0 24 24" fill="none" xmlns="http://www.w3.org/2000/svg">
<rect width="24" height="24" rx="12" fill="url(#paint0_linear_353_1620)"/>
<g clip-path="url(#clip0_353_1620)">
<path d="M6.59915 15.5708C6.6957 15.4743 6.82847 15.418 6.96927 15.418H19.7387C19.9721 15.418 20.0887 15.6996 19.9238 15.8645L17.4013 18.387C17.3047 18.4836 17.1719 18.5399 17.0311 18.5399H4.2617C4.02836 18.5399 3.91169 18.2583 4.07664 18.0934L6.59915 15.5708Z" fill="white"/>
<path d="M6.59927 6.15288C6.69985 6.05632 6.83261 6 6.9694 6H19.7388C19.9722 6 20.0888 6.28162 19.9239 6.44657L17.4014 8.96907C17.3048 9.06563 17.1721 9.12195 17.0313 9.12195H4.26183C4.02848 9.12195 3.91181 8.84033 4.07676 8.67538L6.59927 6.15288Z" fill="white"/>
<path d="M17.4013 10.8326C17.3047 10.736 17.1719 10.6797 17.0311 10.6797H4.2617C4.02836 10.6797 3.91169 10.9613 4.07664 11.1263L6.59915 13.6488C6.6957 13.7453 6.82847 13.8016 6.96927 13.8016H19.7387C19.9721 13.8016 20.0887 13.52 19.9238 13.3551L17.4013 10.8326Z" fill="white"/>
</g>
<defs>
<linearGradient id="paint0_linear_353_1620" x1="18.8607" y1="-55.3571" x2="-35.44" y2="-35.065" gradientUnits="userSpaceOnUse">
<stop stop-color="#00FFA3"/>
<stop offset="1" stop-color="#DC1FFF"/>
</linearGradient>
<clipPath id="clip0_353_1620">
<rect width="16" height="12.5401" fill="white" transform="translate(4 6)"/>
</clipPath>
</defs>
</svg>
