<svg width="14" height="14" viewBox="0 0 14 14" fill="none" xmlns="http://www.w3.org/2000/svg">
<path d="M6.76201 2.04227C6.72492 2.00417 6.68056 1.97388 6.63157 1.95321C6.58258 1.93253 6.52994 1.92188 6.47676 1.92188C6.42359 1.92188 6.37095 1.93253 6.32196 1.95321C6.27296 1.97388 6.22861 2.00417 6.19151 2.04227C6.11546 2.12036 6.07289 2.22507 6.07289 2.33408C6.07289 2.44309 6.11546 2.5478 6.19151 2.62589L10.4554 6.99914L6.19151 11.3733C6.15313 11.4126 6.12286 11.459 6.10244 11.51C6.08202 11.561 6.07185 11.6155 6.0725 11.6705C6.07315 11.7254 6.08461 11.7797 6.10623 11.8302C6.12785 11.8806 6.15921 11.9264 6.19851 11.9648C6.23595 12.0013 6.28023 12.0302 6.32883 12.0496C6.37742 12.0691 6.42938 12.0788 6.48171 12.0781C6.53405 12.0775 6.58575 12.0665 6.63385 12.0459C6.68195 12.0252 6.7255 11.9953 6.76201 11.9578L11.2963 7.30452C11.3759 7.22281 11.4205 7.11323 11.4205 6.99914C11.4205 6.88505 11.3759 6.77547 11.2963 6.69377L6.76201 2.04227ZM3.26201 2.04227C3.22492 2.00417 3.18056 1.97388 3.13157 1.95321C3.08258 1.93253 3.02994 1.92188 2.97676 1.92188C2.92359 1.92188 2.87095 1.93253 2.82196 1.95321C2.77296 1.97388 2.72861 2.00417 2.69151 2.04227C2.61546 2.12036 2.57289 2.22507 2.57289 2.33408C2.57289 2.44309 2.61546 2.5478 2.69151 2.62589L6.95539 6.99914L2.69151 11.3733C2.65313 11.4126 2.62286 11.459 2.60244 11.51C2.58202 11.561 2.57185 11.6155 2.5725 11.6705C2.57315 11.7254 2.58461 11.7797 2.60623 11.8302C2.62785 11.8806 2.65921 11.9264 2.69851 11.9648C2.73595 12.0013 2.78023 12.0302 2.82883 12.0496C2.87742 12.0691 2.92938 12.0788 2.98171 12.0781C3.03405 12.0775 3.08575 12.0665 3.13385 12.0459C3.18194 12.0252 3.2255 11.9953 3.26201 11.9578L7.79626 7.30452C7.8759 7.22281 7.92047 7.11323 7.92047 6.99914C7.92047 6.88505 7.8759 6.77547 7.79626 6.69377L3.26201 2.04227Z" fill="black"/>
</svg>
