<svg width="14" height="14" viewBox="0 0 14 14" fill="none" xmlns="http://www.w3.org/2000/svg">
<path d="M7.23799 2.04227C7.27508 2.00417 7.31944 1.97388 7.36843 1.95321C7.41742 1.93253 7.47006 1.92188 7.52324 1.92188C7.57641 1.92188 7.62905 1.93253 7.67804 1.95321C7.72704 1.97388 7.77139 2.00417 7.80849 2.04227C7.88454 2.12036 7.92711 2.22507 7.92711 2.33408C7.92711 2.44309 7.88454 2.5478 7.80849 2.62589L3.54461 6.99914L7.80849 11.3733C7.84687 11.4126 7.87714 11.459 7.89756 11.51C7.91798 11.561 7.92815 11.6155 7.9275 11.6705C7.92685 11.7254 7.91539 11.7797 7.89377 11.8302C7.87215 11.8806 7.84079 11.9264 7.80149 11.9648C7.76405 12.0013 7.71977 12.0302 7.67117 12.0496C7.62258 12.0691 7.57062 12.0788 7.51829 12.0781C7.46595 12.0775 7.41425 12.0665 7.36615 12.0459C7.31805 12.0252 7.2745 11.9953 7.23799 11.9578L2.70374 7.30452C2.6241 7.22281 2.57953 7.11323 2.57953 6.99914C2.57953 6.88505 2.6241 6.77547 2.70374 6.69377L7.23799 2.04227ZM10.738 2.04227C10.7751 2.00417 10.8194 1.97388 10.8684 1.95321C10.9174 1.93253 10.9701 1.92188 11.0232 1.92188C11.0764 1.92188 11.1291 1.93253 11.178 1.95321C11.227 1.97388 11.2714 2.00417 11.3085 2.04227C11.3845 2.12036 11.4271 2.22507 11.4271 2.33408C11.4271 2.44309 11.3845 2.5478 11.3085 2.62589L7.04461 6.99914L11.3085 11.3733C11.3469 11.4126 11.3771 11.459 11.3976 11.51C11.418 11.561 11.4282 11.6155 11.4275 11.6705C11.4269 11.7254 11.4154 11.7797 11.3938 11.8302C11.3721 11.8806 11.3408 11.9264 11.3015 11.9648C11.2641 12.0013 11.2198 12.0302 11.1712 12.0496C11.1226 12.0691 11.0706 12.0788 11.0183 12.0781C10.9659 12.0775 10.9142 12.0665 10.8662 12.0459C10.8181 12.0252 10.7745 11.9953 10.738 11.9578L6.20374 7.30452C6.1241 7.22281 6.07953 7.11323 6.07953 6.99914C6.07953 6.88505 6.1241 6.77547 6.20374 6.69377L10.738 2.04227Z" fill="black"/>
</svg>
