<svg width="14" height="14" viewBox="0 0 14 14" fill="none" xmlns="http://www.w3.org/2000/svg">
<path d="M8.33174 2.04227L3.79749 6.69377C3.71785 6.77547 3.67328 6.88505 3.67328 6.99914C3.67328 7.11323 3.71785 7.22281 3.79749 7.30452L8.33174 11.9578C8.36883 11.9959 8.41319 12.0261 8.46218 12.0468C8.51117 12.0675 8.56381 12.0782 8.61699 12.0782C8.67016 12.0782 8.7228 12.0675 8.77179 12.0468C8.82079 12.0261 8.86514 11.9959 8.90224 11.9578C8.97855 11.8796 9.02128 11.7747 9.02128 11.6655C9.02128 11.5563 8.97855 11.4514 8.90224 11.3733L4.63836 6.99914L8.90224 2.62589C8.97829 2.5478 9.02085 2.44309 9.02085 2.33408C9.02085 2.22507 8.97829 2.12036 8.90224 2.04227C8.86514 2.00417 8.82079 1.97388 8.77179 1.95321C8.7228 1.93253 8.67016 1.92188 8.61699 1.92188C8.56381 1.92188 8.51117 1.93253 8.46218 1.95321C8.41319 1.97388 8.36883 2.00417 8.33174 2.04227V2.04227Z" fill="black"/>
</svg>
