<svg width="14" height="14" viewBox="0 0 14 14" fill="none" xmlns="http://www.w3.org/2000/svg">
<mask id="path-1-inside-1_384_4920" fill="white">
<path d="M5.66826 2.04227L10.2025 6.69377C10.2822 6.77547 10.3267 6.88505 10.3267 6.99914C10.3267 7.11323 10.2822 7.22281 10.2025 7.30452L5.66826 11.9578C5.63117 11.9959 5.58681 12.0261 5.53782 12.0468C5.48883 12.0675 5.43619 12.0782 5.38301 12.0782C5.32984 12.0782 5.2772 12.0675 5.22821 12.0468C5.17921 12.0261 5.13486 11.9959 5.09776 11.9578C5.02145 11.8796 4.97872 11.7747 4.97872 11.6655C4.97872 11.5563 5.02145 11.4514 5.09776 11.3733L9.36164 6.99914L5.09776 2.62589C5.02171 2.5478 4.97915 2.44309 4.97915 2.33408C4.97915 2.22507 5.02171 2.12036 5.09776 2.04227C5.13486 2.00417 5.17921 1.97388 5.22821 1.95321C5.2772 1.93253 5.32984 1.92188 5.38301 1.92188C5.43619 1.92188 5.48883 1.93253 5.53782 1.95321C5.58681 1.97388 5.63117 2.00417 5.66826 2.04227Z"/>
</mask>
<path d="M5.66826 2.04227L10.2025 6.69377C10.2822 6.77547 10.3267 6.88505 10.3267 6.99914C10.3267 7.11323 10.2822 7.22281 10.2025 7.30452L5.66826 11.9578C5.63117 11.9959 5.58681 12.0261 5.53782 12.0468C5.48883 12.0675 5.43619 12.0782 5.38301 12.0782C5.32984 12.0782 5.2772 12.0675 5.22821 12.0468C5.17921 12.0261 5.13486 11.9959 5.09776 11.9578C5.02145 11.8796 4.97872 11.7747 4.97872 11.6655C4.97872 11.5563 5.02145 11.4514 5.09776 11.3733L9.36164 6.99914L5.09776 2.62589C5.02171 2.5478 4.97915 2.44309 4.97915 2.33408C4.97915 2.22507 5.02171 2.12036 5.09776 2.04227C5.13486 2.00417 5.17921 1.97388 5.22821 1.95321C5.2772 1.93253 5.32984 1.92188 5.38301 1.92188C5.43619 1.92188 5.48883 1.93253 5.53782 1.95321C5.58681 1.97388 5.63117 2.00417 5.66826 2.04227Z" fill="black"/>
<path d="M10.2025 6.69377L10.9186 5.99574L10.9186 5.99577L10.2025 6.69377ZM10.2025 7.30452L9.48631 6.60663L9.48642 6.60652L10.2025 7.30452ZM5.66826 11.9578L4.95178 11.2602L4.95206 11.2599L5.66826 11.9578ZM5.09776 11.9578L5.81314 11.259L5.81425 11.2602L5.09776 11.9578ZM4.97872 11.6655H3.97872H4.97872ZM5.09776 11.3733L5.81384 12.0713L5.81314 12.072L5.09776 11.3733ZM9.36164 6.99914L10.0776 6.30105L10.7582 6.99907L10.0777 7.69717L9.36164 6.99914ZM5.09776 2.62589L4.38176 3.32399L4.38137 3.32359L5.09776 2.62589ZM4.97915 2.33408H3.97915H4.97915ZM5.09776 2.04227L5.81425 2.73987L5.81416 2.73997L5.09776 2.04227ZM6.38434 1.34424L10.9186 5.99574L9.48644 7.39179L4.95219 2.74029L6.38434 1.34424ZM10.9186 5.99577C11.1803 6.26422 11.3267 6.62426 11.3267 6.99914H9.32672C9.32672 7.14583 9.38403 7.28672 9.48642 7.39177L10.9186 5.99577ZM11.3267 6.99914C11.3267 7.37402 11.1803 7.73407 10.9186 8.00252L9.48642 6.60652C9.38403 6.71156 9.32672 6.85245 9.32672 6.99914H11.3267ZM10.9187 8.00241L6.38447 12.6557L4.95206 11.2599L9.48631 6.60663L10.9187 8.00241ZM6.38475 12.6554C6.25448 12.7892 6.09872 12.8955 5.92666 12.9681L5.14898 11.1255C5.07491 11.1568 5.00786 11.2026 4.95178 11.2602L6.38475 12.6554ZM5.92666 12.9681C5.75461 13.0407 5.56975 13.0782 5.38301 13.0782V11.0782C5.30263 11.0782 5.22305 11.0943 5.14898 11.1255L5.92666 12.9681ZM5.38301 13.0782C5.19628 13.0782 5.01142 13.0408 4.83936 12.9681L5.61705 11.1255C5.54297 11.0943 5.4634 11.0782 5.38301 11.0782V13.0782ZM4.83936 12.9681C4.66731 12.8955 4.51155 12.7892 4.38128 12.6554L5.81425 11.2602C5.75817 11.2026 5.69112 11.1568 5.61705 11.1255L4.83936 12.9681ZM4.38239 12.6565C4.1236 12.3916 3.97872 12.0359 3.97872 11.6655H5.97872C5.97872 11.5136 5.91929 11.3677 5.81314 11.259L4.38239 12.6565ZM3.97872 11.6655C3.97872 11.2951 4.1236 10.9395 4.38239 10.6745L5.81314 12.072C5.91929 11.9633 5.97872 11.8174 5.97872 11.6655H3.97872ZM4.38169 10.6752L8.64557 6.30112L10.0777 7.69717L5.81384 12.0713L4.38169 10.6752ZM8.64564 7.69724L4.38176 3.32399L5.81377 1.92779L10.0776 6.30105L8.64564 7.69724ZM4.38137 3.32359C4.12347 3.05877 3.97915 2.70373 3.97915 2.33408H5.97915C5.97915 2.18245 5.91995 2.03682 5.81416 1.92819L4.38137 3.32359ZM3.97915 2.33408C3.97915 1.96443 4.12347 1.60938 4.38137 1.34457L5.81416 2.73997C5.91995 2.63134 5.97915 2.4857 5.97915 2.33408H3.97915ZM4.38128 1.34466C4.51155 1.21086 4.66731 1.10452 4.83936 1.0319L5.61705 2.87451C5.69112 2.84325 5.75817 2.79747 5.81425 2.73987L4.38128 1.34466ZM4.83936 1.0319C5.01142 0.959286 5.19627 0.921875 5.38301 0.921875V2.92188C5.4634 2.92188 5.54298 2.90577 5.61705 2.87451L4.83936 1.0319ZM5.38301 0.921875C5.56976 0.921875 5.75461 0.959287 5.92666 1.0319L5.14898 2.87451C5.22305 2.90577 5.30262 2.92188 5.38301 2.92188V0.921875ZM5.92666 1.0319C6.09872 1.10452 6.25448 1.21086 6.38475 1.34466L4.95178 2.73987C5.00786 2.79747 5.07491 2.84325 5.14898 2.87451L5.92666 1.0319Z" fill="black" mask="url(#path-1-inside-1_384_4920)"/>
</svg>
